<svg width="19" height="22" viewBox="0 0 19 22" fill="none" xmlns="http://www.w3.org/2000/svg">
<path d="M18.1427 17.1447C17.81 17.9133 17.4161 18.6208 16.9599 19.2713C16.3379 20.158 15.8287 20.7718 15.4362 21.1127C14.8278 21.6722 14.176 21.9587 13.478 21.975C12.9769 21.975 12.3726 21.8324 11.6692 21.5432C10.9634 21.2553 10.3148 21.1127 9.7218 21.1127C9.09985 21.1127 8.43281 21.2553 7.71932 21.5432C7.00475 21.8324 6.4291 21.9832 5.98898 21.9981C5.31963 22.0266 4.65245 21.7319 3.9865 21.1127C3.56145 20.742 3.0298 20.1064 2.3929 19.2061C1.70957 18.2446 1.14777 17.1297 0.707645 15.8587C0.236289 14.4857 0 13.1563 0 11.8692C0 10.3948 0.318583 9.1232 0.956699 8.05759C1.4582 7.20166 2.12538 6.52647 2.9604 6.0308C3.79543 5.53514 4.69767 5.28256 5.66931 5.26639C6.20096 5.26639 6.89815 5.43085 7.76454 5.75405C8.62849 6.07833 9.18323 6.24278 9.42644 6.24278C9.60828 6.24278 10.2245 6.05049 11.2692 5.66714C12.2572 5.31162 13.091 5.16441 13.774 5.2224C15.625 5.37177 17.0155 6.10142 17.9403 7.41595C16.2849 8.41895 15.4661 9.82378 15.4824 11.626C15.4973 13.0297 16.0065 14.1978 17.0074 15.1253C17.4609 15.5558 17.9675 15.8885 18.531 16.1248C18.4088 16.4793 18.2798 16.8188 18.1427 17.1447ZM13.8976 0.440125C13.8976 1.54038 13.4956 2.56768 12.6944 3.51853C11.7275 4.64892 10.558 5.30211 9.28983 5.19904C9.27367 5.06704 9.2643 4.92812 9.2643 4.78214C9.2643 3.7259 9.72411 2.59551 10.5407 1.67127C10.9483 1.20331 11.4668 0.814208 12.0956 0.503814C12.7229 0.19805 13.3164 0.0289566 13.8745 0C13.8908 0.147086 13.8976 0.294182 13.8976 0.440111V0.440125Z" fill="black"/>
</svg>
