<svg width="18" height="18" viewBox="0 0 18 18" fill="none" xmlns="http://www.w3.org/2000/svg">
<path fill-rule="evenodd" clip-rule="evenodd" d="M10.9092 8.30981H13.4002C13.7779 8.30981 14.0747 7.99754 14.0747 7.62097C14.0747 7.23522 13.7779 6.93213 13.4002 6.93213H10.9092C10.5315 6.93213 10.2347 7.23522 10.2347 7.62097C10.2347 7.99754 10.5315 8.30981 10.9092 8.30981ZM16.3589 3.53474C16.9075 3.53474 17.2672 3.72762 17.6269 4.15011C17.9866 4.5726 18.0496 5.17878 17.9687 5.72894L17.1143 11.754C16.9525 12.9122 15.9812 13.7654 14.8391 13.7654H5.02775C3.83168 13.7654 2.84245 12.8295 2.74353 11.6172L1.91617 1.60506L0.558233 1.36626C0.198513 1.30197 -0.0532905 0.943774 0.0096604 0.576391C0.0726113 0.200741 0.423338 -0.0481611 0.792051 0.00786435L2.93688 0.337592C3.24264 0.393617 3.46747 0.649867 3.49444 0.962142L3.66531 3.01949C3.69229 3.31431 3.92611 3.53474 4.21388 3.53474H16.3589ZM4.88369 15.2171C4.12828 15.2171 3.51675 15.8416 3.51675 16.6131C3.51675 17.3755 4.12828 18 4.88369 18C5.63011 18 6.24163 17.3755 6.24163 16.6131C6.24163 15.8416 5.63011 15.2171 4.88369 15.2171ZM15.0008 15.2171C14.2454 15.2171 13.6339 15.8416 13.6339 16.6131C13.6339 17.3755 14.2454 18 15.0008 18C15.7472 18 16.3588 17.3755 16.3588 16.6131C16.3588 15.8416 15.7472 15.2171 15.0008 15.2171Z" fill="#434343"/>
</svg>
