<svg width="13" height="13" viewBox="0 0 13 13" fill="none" xmlns="http://www.w3.org/2000/svg">
<path d="M6.00156 0C2.68749 0 0.0015555 2.5457 0.0015555 5.6875C0.0015555 6.98906 0.467962 8.18125 1.2414 9.14102C0.892181 10.2184 0.165618 11.1316 0.153899 11.1426C-0.000788245 11.334 -0.0429757 11.6129 0.0460868 11.8535C0.135149 12.0941 0.339055 12.25 0.564056 12.25C2.00546 12.25 3.14218 11.5473 3.82421 10.984C4.50156 11.2328 5.23281 11.375 6.00156 11.375C9.31562 11.375 12.0016 8.8293 12.0016 5.6875C12.0016 2.5457 9.31562 0 6.00156 0ZM6.00156 10.0625C5.37577 10.0625 4.75702 9.95039 4.16406 9.73164L3.63202 9.53477L3.17499 9.91211C2.83984 10.1883 2.38046 10.4973 1.82734 10.7051C1.99843 10.3742 2.16484 10.0023 2.29374 9.60586L2.54218 8.8375L2.05937 8.24141C1.63515 7.71367 1.12656 6.84141 1.12656 5.6875C1.12656 3.27578 3.31327 1.3125 6.00156 1.3125C8.68984 1.3125 10.8766 3.27578 10.8766 5.6875C10.8766 8.09922 8.68984 10.0625 6.00156 10.0625Z" fill="white"/>
</svg>
