<svg width="26" height="24" viewBox="0 0 26 24" fill="none" xmlns="http://www.w3.org/2000/svg">
<path d="M12.9167 23.25C12.5507 23.25 12.2441 23.126 11.997 22.878C11.749 22.6309 11.625 22.3243 11.625 21.9583C11.625 21.5924 11.749 21.2858 11.997 21.0387C12.2441 20.7907 12.5507 20.6667 12.9167 20.6667H21.9583V11.4958C21.9583 10.2472 21.7215 9.07396 21.2479 7.97604C20.7743 6.87813 20.1285 5.92014 19.3104 5.10208C18.4924 4.28403 17.5344 3.63819 16.4365 3.16458C15.3385 2.69097 14.1653 2.45417 12.9167 2.45417C11.6681 2.45417 10.4948 2.69097 9.39687 3.16458C8.29896 3.63819 7.34097 4.28403 6.52292 5.10208C5.70486 5.92014 5.05903 6.87813 4.58542 7.97604C4.11181 9.07396 3.875 10.2472 3.875 11.4958V18.0833C3.875 18.4493 3.75143 18.7559 3.50429 19.003C3.25629 19.251 2.94931 19.375 2.58333 19.375C1.87292 19.375 1.26497 19.1223 0.7595 18.6168C0.253167 18.1105 0 17.5021 0 16.7917V14.2083C0 13.7132 0.118403 13.277 0.355208 12.8999C0.592014 12.5236 0.904167 12.217 1.29167 11.9802L1.38854 10.2687C1.58229 8.69722 2.02921 7.27639 2.72929 6.00625C3.42851 4.73611 4.30039 3.65972 5.34492 2.77708C6.38858 1.89444 7.56185 1.21072 8.86471 0.725917C10.1667 0.241972 11.5174 0 12.9167 0C14.3375 0 15.6993 0.241972 17.0022 0.725917C18.3042 1.21072 19.4719 1.89961 20.5052 2.79258C21.5385 3.68642 22.4053 4.76281 23.1053 6.02175C23.8046 7.28156 24.251 8.68646 24.4448 10.2365L24.5417 11.9156C24.9292 12.1094 25.2413 12.3944 25.4781 12.7707C25.7149 13.1479 25.8333 13.5625 25.8333 14.0146V16.9854C25.8333 17.459 25.7149 17.8788 25.4781 18.2448C25.2413 18.6108 24.9292 18.8906 24.5417 19.0844V20.6667C24.5417 21.3771 24.2889 21.9855 23.7835 22.4918C23.2771 22.9973 22.6687 23.25 21.9583 23.25H12.9167ZM9.04167 14.2083C8.67569 14.2083 8.36914 14.0843 8.122 13.8363C7.874 13.5892 7.75 13.2826 7.75 12.9167C7.75 12.5507 7.874 12.2437 8.122 11.9957C8.36914 11.7486 8.67569 11.625 9.04167 11.625C9.40764 11.625 9.71463 11.7486 9.96263 11.9957C10.2098 12.2437 10.3333 12.5507 10.3333 12.9167C10.3333 13.2826 10.2098 13.5892 9.96263 13.8363C9.71463 14.0843 9.40764 14.2083 9.04167 14.2083ZM16.7917 14.2083C16.4257 14.2083 16.1191 14.0843 15.872 13.8363C15.624 13.5892 15.5 13.2826 15.5 12.9167C15.5 12.5507 15.624 12.2437 15.872 11.9957C16.1191 11.7486 16.4257 11.625 16.7917 11.625C17.1576 11.625 17.4646 11.7486 17.7126 11.9957C17.9598 12.2437 18.0833 12.5507 18.0833 12.9167C18.0833 13.2826 17.9598 13.5892 17.7126 13.8363C17.4646 14.0843 17.1576 14.2083 16.7917 14.2083ZM5.19896 12.2062C5.11285 10.9361 5.29067 9.78437 5.73242 8.75104C6.17331 7.71771 6.76489 6.84024 7.50717 6.11862C8.25031 5.39787 9.10625 4.84375 10.075 4.45625C11.0437 4.06875 12.0125 3.875 12.9812 3.875C14.9403 3.875 16.6358 4.49414 18.0678 5.73242C19.499 6.96983 20.3653 8.51424 20.6667 10.3656C18.6431 10.3441 16.8132 9.80031 15.1771 8.73425C13.541 7.66906 12.3031 6.28611 11.4635 4.58542C11.1191 6.32917 10.3927 7.87357 9.2845 9.21863C8.17539 10.5645 6.81354 11.5604 5.19896 12.2062Z" fill="white"/>
</svg>
