<svg width="29" height="27" viewBox="0 0 29 27" fill="none" xmlns="http://www.w3.org/2000/svg">
<path d="M17.4062 0.9375C16.6355 0.9375 15.8962 1.24369 15.3512 1.78872C14.8062 2.33375 14.5 3.07296 14.5 3.84375V7.71875C14.5001 8.31968 14.6864 8.9058 15.0334 9.39643C15.3804 9.88706 15.8709 10.2581 16.4375 10.4584V12.5625C16.4376 12.7466 16.4901 12.9268 16.5889 13.0821C16.6877 13.2374 16.8287 13.3614 16.9954 13.4395C17.1621 13.5175 17.3476 13.5465 17.5302 13.5229C17.7127 13.4994 17.8848 13.4243 18.0262 13.3065L21.2425 10.625H25.1562C25.927 10.625 26.6663 10.3188 27.2113 9.77378C27.7563 9.22875 28.0625 8.48954 28.0625 7.71875V3.84375C28.0625 3.07296 27.7563 2.33375 27.2113 1.78872C26.6663 1.24369 25.927 0.9375 25.1562 0.9375H17.4062ZM16.4375 3.84375C16.4375 3.58682 16.5396 3.34042 16.7212 3.15874C16.9029 2.97706 17.1493 2.875 17.4062 2.875H25.1562C25.4132 2.875 25.6596 2.97706 25.8413 3.15874C26.0229 3.34042 26.125 3.58682 26.125 3.84375V7.71875C26.125 7.97568 26.0229 8.22208 25.8413 8.40376C25.6596 8.58544 25.4132 8.6875 25.1562 8.6875H20.8938C20.6672 8.6876 20.4478 8.76713 20.2737 8.91225L18.375 10.4932V9.65625C18.375 9.39932 18.2729 9.15292 18.0913 8.97124C17.9096 8.78956 17.6632 8.6875 17.4062 8.6875C17.1493 8.6875 16.9029 8.58544 16.7212 8.40376C16.5396 8.22208 16.4375 7.97568 16.4375 7.71875V3.84375ZM4.8125 10.625C4.8125 9.59729 5.22076 8.61166 5.94746 7.88496C6.67416 7.15826 7.65979 6.75 8.6875 6.75C9.71521 6.75 10.7008 7.15826 11.4275 7.88496C12.1542 8.61166 12.5625 9.59729 12.5625 10.625C12.5625 11.6527 12.1542 12.6383 11.4275 13.365C10.7008 14.0917 9.71521 14.5 8.6875 14.5C7.65979 14.5 6.67416 14.0917 5.94746 13.365C5.22076 12.6383 4.8125 11.6527 4.8125 10.625ZM8.6875 8.6875C8.17364 8.6875 7.68083 8.89163 7.31748 9.25498C6.95413 9.61833 6.75 10.1111 6.75 10.625C6.75 11.1389 6.95413 11.6317 7.31748 11.995C7.68083 12.3584 8.17364 12.5625 8.6875 12.5625C9.20136 12.5625 9.69417 12.3584 10.0575 11.995C10.4209 11.6317 10.625 11.1389 10.625 10.625C10.625 10.1111 10.4209 9.61833 10.0575 9.25498C9.69417 8.89163 9.20136 8.6875 8.6875 8.6875ZM3.84375 16.4375H13.5312C14.302 16.4375 15.0413 16.7437 15.5863 17.2887C16.1313 17.8337 16.4375 18.573 16.4375 19.3438C16.4375 21.506 15.5482 23.2381 14.0893 24.4103C12.6536 25.5631 10.7277 26.125 8.6875 26.125C6.64731 26.125 4.72144 25.5631 3.28575 24.4103C1.82875 23.2381 0.9375 21.506 0.9375 19.3438C0.9375 18.573 1.24369 17.8337 1.78872 17.2887C2.33375 16.7437 3.07296 16.4375 3.84375 16.4375ZM13.5312 18.375H3.84375C3.58682 18.375 3.34042 18.4771 3.15874 18.6587C2.97706 18.8404 2.875 19.0868 2.875 19.3438C2.875 20.9267 3.50469 22.1008 4.49863 22.8991C5.51775 23.7167 6.9825 24.1875 8.6875 24.1875C10.3925 24.1875 11.8573 23.7167 12.8764 22.8991C13.8703 22.1008 14.5 20.9267 14.5 19.3438C14.5 19.0868 14.3979 18.8404 14.2163 18.6587C14.0346 18.4771 13.7882 18.375 13.5312 18.375Z" fill="white"/>
</svg>
