<svg width="24" height="25" viewBox="0 0 24 25" fill="none" xmlns="http://www.w3.org/2000/svg">
<path d="M4.05976 8.09259L4.06025 8.0922L9.44976 3.89259C9.98501 3.47628 10.732 3.23702 11.5177 3.2186C12.3032 3.20018 13.0621 3.40409 13.6183 3.79333C13.6184 3.79339 13.6185 3.79344 13.6186 3.7935L19.7983 8.12333L19.7997 8.12432C20.1782 8.38809 20.5612 8.84928 20.8507 9.40396C21.1402 9.9586 21.3 10.5371 21.3 11V18.28C21.3 20.2045 19.7223 21.79 17.79 21.79H6.21C4.27876 21.79 2.7 20.2056 2.7 18.27V10.86C2.7 10.4308 2.84339 9.88223 3.10593 9.34713C3.36834 8.81231 3.7159 8.36003 4.05976 8.09259Z" stroke="white" stroke-width="1.4"/>
<mask id="path-2-inside-1_328_2055" fill="white">
<path d="M12 18.49V15.49V18.49Z"/>
</mask>
<path d="M13.4 18.49V15.49H10.6V18.49H13.4Z" fill="white" mask="url(#path-2-inside-1_328_2055)"/>
</svg>
