<svg width="31" height="31" viewBox="0 0 31 31" fill="none" xmlns="http://www.w3.org/2000/svg">
<path d="M6.45833 6.45833H14.2083C14.9187 6.45833 15.5 5.87708 15.5 5.16667C15.5 4.45625 14.9187 3.875 14.2083 3.875H6.45833C5.0375 3.875 3.875 5.0375 3.875 6.45833V24.5417C3.875 25.9625 5.0375 27.125 6.45833 27.125H14.2083C14.9187 27.125 15.5 26.5437 15.5 25.8333C15.5 25.1229 14.9187 24.5417 14.2083 24.5417H6.45833V6.45833Z" fill="white"/>
<path d="M26.6729 15.0479L23.0692 11.4442C22.9793 11.3519 22.864 11.2885 22.7379 11.2621C22.6119 11.2358 22.4808 11.2476 22.3615 11.2962C22.2422 11.3447 22.1401 11.4277 22.0683 11.5346C21.9965 11.6415 21.9582 11.7674 21.9583 11.8962V14.2083H12.9167C12.2062 14.2083 11.625 14.7896 11.625 15.5C11.625 16.2104 12.2062 16.7917 12.9167 16.7917H21.9583V19.1037C21.9583 19.685 22.6558 19.9692 23.0563 19.5558L26.66 15.9521C26.9183 15.7067 26.9183 15.2933 26.6729 15.0479Z" fill="white"/>
</svg>
