<svg width="171" height="44" viewBox="0 0 171 44" fill="none" xmlns="http://www.w3.org/2000/svg">
<g clip-path="url(#clip0_94_340)">
<path d="M55.5515 25.8497C52.9544 25.8497 50.6154 25.8627 48.2936 25.831C47.9892 25.7955 47.7085 25.6524 47.5038 25.4283C43.779 21.491 40.0637 17.5451 36.3578 13.5904C36.2588 13.4678 36.1663 13.3402 36.0807 13.2082C36.4357 13.184 36.6977 13.1523 36.9616 13.1523C41.2331 13.1523 45.5047 13.1523 49.7763 13.1523C51.2134 13.1523 51.6368 12.7794 51.7412 11.3738C51.7824 10.9099 51.7722 10.4429 51.7109 9.98118C51.5647 9.00991 51.1128 8.6296 50.1256 8.6296C44.6504 8.62214 39.1765 8.62214 33.7038 8.6296C33.55 8.6296 33.3962 8.6557 33.1741 8.67434V25.7788H27.5755V24.8597C27.5755 20.1059 27.5622 15.3521 27.5945 10.6001C27.6051 9.98765 27.7488 9.38448 28.0159 8.83094C28.7924 7.237 29.6695 5.69341 30.4839 4.11625C30.7953 3.50478 31.1807 3.227 31.942 3.2326C37.9848 3.26988 44.0296 3.25124 50.0725 3.25497C53.8182 3.25497 56.1305 4.9589 57.1082 8.52147C57.7214 10.7586 57.5373 12.9789 56.4077 15.0314C55.1034 17.4009 53.0417 18.5735 50.2661 18.4635C49.8238 18.4467 49.3814 18.4635 48.9372 18.4635C48.884 18.4635 48.8328 18.5082 48.6847 18.5754L55.5515 25.8497Z" fill="#FBFCFC"/>
<path d="M153.232 25.8273C150.829 25.8273 148.423 25.8646 146.018 25.8273C141.608 25.7434 138.492 22.5984 138.489 18.2864C138.489 15.8008 138.489 13.3151 138.489 10.8294C138.489 6.59012 141.42 3.41344 145.724 3.30345C150.779 3.17916 155.838 3.17916 160.902 3.30345C164.726 3.39852 168.28 6.59198 168.048 10.7269C167.904 13.2958 167.932 15.8834 168.048 18.4579C168.219 22.481 164.781 25.7136 160.729 25.8143C158.231 25.8795 155.731 25.8273 153.232 25.8273ZM153.31 8.62961C150.872 8.62961 148.437 8.6147 146.001 8.62961C144.799 8.63893 144.182 9.0938 144.161 10.1769C144.104 13.0945 144.127 16.0139 144.161 18.9389C144.171 19.7983 144.704 20.3054 145.568 20.4303C146.036 20.5045 146.509 20.5444 146.982 20.5496C151.189 20.5583 155.397 20.5583 159.605 20.5496C159.987 20.5526 160.368 20.5252 160.744 20.4676C162.03 20.2663 162.423 19.8188 162.426 18.5456C162.426 15.9356 162.426 13.3257 162.426 10.7157C162.426 9.16465 161.906 8.63334 160.338 8.62588C157.992 8.62215 155.651 8.62961 153.31 8.63334V8.62961Z" fill="#FBFBFB"/>
<path d="M119.027 25.8273C116.497 25.8273 113.966 25.8776 111.433 25.8143C108.143 25.7322 104.861 23.5455 104.53 20.4862C104.107 16.5443 104.107 12.5696 104.53 8.62774C104.865 5.53868 108.035 3.36683 111.431 3.30345C116.491 3.2065 121.556 3.17108 126.619 3.31463C130.663 3.42835 134.023 6.8362 133.765 10.7381C133.622 13.3132 133.622 15.894 133.765 18.4691C133.955 22.4008 130.549 25.7229 126.439 25.8217C123.971 25.8814 121.503 25.8329 119.035 25.8329L119.027 25.8273ZM119.016 8.6352C116.58 8.6352 114.144 8.62215 111.709 8.6352C110.49 8.64638 109.854 9.15906 109.837 10.2683C109.793 13.1243 109.801 15.9841 109.837 18.8438C109.846 19.7759 110.391 20.3352 111.355 20.4527C111.825 20.5145 112.298 20.5493 112.772 20.5571C116.092 20.5658 119.413 20.5658 122.735 20.5571C123.874 20.5571 125.013 20.5999 126.152 20.5123C127.705 20.3912 128.117 19.8971 128.121 18.3684C128.121 15.8206 128.121 13.2728 128.121 10.725C128.121 9.13482 127.603 8.63333 125.949 8.62774C123.635 8.62401 121.326 8.62961 119.016 8.63147V8.6352Z" fill="#FBFBFB"/>
<path d="M73.0783 25.8161V11.6982H78.6427V20.5608H90.5766C90.8936 20.5608 91.2107 20.5608 91.5258 20.5403C93.0446 20.4098 93.542 19.9288 93.5895 18.4356C93.6293 17.1623 93.6008 15.889 93.6008 14.6157C93.6008 13.3107 93.6255 12.0058 93.6008 10.7008C93.5629 9.12923 93.0712 8.63334 91.4726 8.62402C88.2452 8.60351 85.0178 8.62402 81.7904 8.62402C79.1648 8.62402 76.5392 8.61097 73.9136 8.64639C73.2586 8.65571 73.0175 8.47488 73.0365 7.80934C73.0802 6.31794 73.0498 4.84146 73.0498 3.30159C73.4105 3.28108 73.6858 3.25125 73.9592 3.25125C79.685 3.25125 85.4102 3.25125 91.1347 3.25125C93.7394 3.25125 95.9759 4.04356 97.6522 6.07745C98.6669 7.28688 99.2135 8.80953 99.1957 10.3764C99.1957 13.0783 99.1957 15.7802 99.1957 18.4822C99.1957 22.3971 96.3062 25.6744 92.3365 25.7714C85.9462 25.9298 79.5559 25.8161 73.0783 25.8161Z" fill="#FBFBFB"/>
<path d="M23.5222 8.75264L25.8326 10.1079L25.77 10.4417L23.8184 10.8481V11.7802C23.8184 16.3153 23.8184 20.8516 23.8184 25.3892C23.8184 26.6737 23.7044 26.7837 22.4173 26.7855C17.2306 26.7855 12.0421 26.7855 6.84972 26.7948C5.74481 26.7948 4.6399 26.8936 3.53308 26.8974C2.25161 26.8974 1.98392 26.6177 1.98392 25.3594C1.98392 20.8553 1.98392 16.3513 1.98392 11.8473V10.8406L0.0607528 10.4677L0 10.1564C0.814449 9.6568 1.59472 9.08634 2.45474 8.67807C3.16667 8.33878 3.39069 7.89136 3.32804 7.15685C3.26919 6.48199 3.31475 5.79781 3.31475 5.04838H6.31056C6.34663 5.42123 6.3808 5.79408 6.43016 6.30488C6.80985 6.11846 7.1307 5.9861 7.43446 5.80899C8.66088 5.09871 9.8778 4.37725 11.0985 3.65951C12.2851 2.96229 13.4716 2.89517 14.6772 3.62596C16.3402 4.63079 18.0147 5.62257 19.6835 6.61994C19.6428 6.76853 19.5921 6.91427 19.5316 7.05618C17.461 11.1364 15.3872 15.2147 13.3103 19.2912C13.1872 19.4973 13.0515 19.6959 12.904 19.8859C11.594 17.3655 10.3277 14.9084 9.03298 12.4662C8.89439 12.2071 8.59253 11.8603 8.35332 11.851C6.94275 11.7932 5.52838 11.8231 3.98681 11.8231C4.17666 12.2276 4.29057 12.5016 4.42536 12.7682C6.20993 16.2618 8.14069 19.6921 9.72403 23.2695C10.603 25.255 11.7307 26.0864 13.9007 25.7434C14.5348 25.6427 14.886 25.5085 15.1822 24.9306C17.9331 19.5261 20.7333 14.1422 23.5222 8.75264Z" fill="#D34D2B"/>
<path d="M23.5222 8.75265C20.7333 14.1422 17.9331 19.5261 15.1689 24.9269C14.8727 25.5048 14.5215 25.639 13.8874 25.7397C11.7231 26.0827 10.5954 25.2513 9.71073 23.2658C8.12739 19.6883 6.19664 16.2581 4.41207 12.7645C4.27728 12.4979 4.16146 12.2239 3.97351 11.8193C5.52457 11.8193 6.93894 11.7895 8.34002 11.8473C8.57923 11.8566 8.88109 12.2034 9.01968 12.4625C10.3144 14.9047 11.5807 17.3617 12.8907 19.8822C13.0382 19.6922 13.1739 19.4936 13.297 19.2875C15.3739 15.2123 17.4477 11.1339 19.5183 7.05246C19.5788 6.91055 19.6295 6.76481 19.6702 6.61623C20.6004 4.83027 21.5819 3.07415 22.4419 1.25092C22.8653 0.350485 23.3684 -0.0857504 24.4296 0.014919C25.5213 0.119317 26.6319 0.0372891 27.902 0.0372891C26.4136 3.02009 24.9688 5.87985 23.5222 8.75265Z" fill="#FBFBFB"/>
<path d="M62.4752 25.7826V3.31464H67.9979V25.7826H62.4752Z" fill="#FDFDFD"/>
<path d="M118.742 30.9465C117.531 31.1702 117.256 32.1005 116.99 33.0848C116.445 35.0926 115.851 37.0836 115.281 39.0858C114.944 40.2902 114.964 40.3162 116.231 40.8532H112.346C114.695 39.9807 113.924 37.6094 115.025 35.8719C113.394 35.8719 112.022 35.8514 110.659 35.8961C110.49 35.8961 110.252 36.2168 110.18 36.4312C109.899 37.285 109.677 38.1575 109.421 39.0206C109.174 39.8371 108.946 40.6332 110.224 40.8532H106.488C107.982 40.6667 107.984 39.4009 108.289 38.3868C108.86 36.4852 109.411 34.5775 109.943 32.6635C110.254 31.545 110.133 31.3585 109.109 30.954H112.931C110.676 31.6997 111.268 33.7858 110.408 35.2902H115.029C115.308 34.2929 115.598 33.2601 115.883 32.2198C116.084 31.4741 115.676 31.1423 114.976 30.9465H118.742Z" fill="#F3F4F5"/>
<path d="M93.1319 39.2313C92.6117 39.7905 92.1693 40.4579 91.5504 40.8774C90.7208 41.4367 89.7867 40.9781 89.5077 39.9993C88.921 37.9487 91.1138 34.5389 93.2686 34.2612C93.7451 34.1996 94.2653 34.4644 94.8766 34.6042C95.1272 33.7336 95.4784 32.7194 95.6739 31.6754C95.7157 31.4536 95.1955 31.1292 94.9032 30.8198L97.1908 30.391L94.4437 40.0851L94.6336 40.2305L95.4993 39.7197C95.2354 40.4076 94.8006 40.9986 94.0355 41.0769C93.3008 41.1533 93.3483 40.5642 93.3578 40.0366C93.3578 39.7737 93.914 39.2797 93.1129 39.2406C93.2211 38.9665 93.3331 38.6925 93.4394 38.4147C93.7811 37.5311 94.1817 36.6604 94.4247 35.7488C94.4988 35.4636 94.2349 34.8876 93.9615 34.7682C93.7655 34.6988 93.5558 34.6746 93.3487 34.6976C93.1416 34.7205 92.9427 34.79 92.7674 34.9006C91.4099 36.0303 90.6297 37.4863 90.6657 39.2704C90.6657 39.5612 90.8993 40.0161 91.1328 40.0907C91.4175 40.1932 91.8447 40.0459 92.1579 39.9042C92.5029 39.7098 92.829 39.4845 93.1319 39.2313Z" fill="#F0F1F3"/>
<path d="M9.85314 30.7452L9.12982 33.9312H8.93997C8.91529 33.6161 8.89819 33.2992 8.86212 32.986C8.82808 32.6925 8.72759 32.4102 8.568 32.1598C8.40841 31.9093 8.19378 31.6972 7.93984 31.5388C7.68589 31.3804 7.39906 31.2798 7.10039 31.2444C6.80171 31.2091 6.49877 31.2398 6.21375 31.3343C5.07466 31.7071 4.73104 32.8779 5.54928 33.8883C6.21755 34.7123 7.0168 35.43 7.71354 36.2335C8.64 37.3017 8.75201 38.5582 8.08185 39.6787C7.41169 40.7991 5.96315 41.3695 4.53549 41.0414C4.23069 40.9625 3.93032 40.8679 3.63561 40.7581C2.75661 40.4579 2.75662 40.4561 1.89661 41.2279C2.19277 39.8409 2.44906 38.6421 2.70725 37.4434L2.94836 37.4527C2.94836 37.8256 2.92368 38.1984 2.94836 38.5713C2.96471 39.0266 3.135 39.4636 3.43237 39.8134C3.72973 40.1631 4.13722 40.4056 4.59054 40.5027C5.44106 40.6891 6.23654 40.5903 6.7852 39.8092C7.31108 39.0635 7.28639 38.1146 6.63901 37.3055C6.05428 36.5766 5.39929 35.8998 4.769 35.2045C3.74002 34.0691 3.56157 32.8555 4.2754 31.819C4.98923 30.7825 6.38651 30.3817 7.74583 30.8738C8.45206 31.118 9.13551 31.5356 9.85314 30.7452Z" fill="#F2F3F5"/>
<path d="M128.914 35.1113C129.176 34.9547 129.438 34.7943 129.704 34.6415C130.384 34.25 131.096 33.9759 131.834 34.455C132.573 34.9342 132.723 35.719 132.594 36.5206C132.313 38.2656 131.455 39.7271 129.847 40.525C129.051 40.9221 128.013 40.8494 126.912 41.0172C126.828 41.3248 126.693 41.9288 126.498 42.5086C126.236 43.2897 126.165 43.9217 127.312 44H124.104C125.256 43.78 125.313 42.7901 125.56 41.9493C126.124 40.0155 126.678 38.0798 127.221 36.1422C127.549 34.9808 127.532 34.9584 126.399 34.6266L128.806 34.209C128.768 34.4867 128.742 34.6862 128.715 34.8857C128.675 35.0143 128.633 35.143 128.594 35.2697L128.825 35.4561C128.856 35.335 128.884 35.225 128.914 35.1113ZM131.396 35.9558C131.301 35.7693 131.168 35.1355 130.838 35.0143C130.447 34.8708 129.826 35.0777 129.412 35.3163C129.014 35.5696 128.701 35.9328 128.512 36.3603C128.087 37.3148 127.739 38.3066 127.407 39.2984C127.13 40.1317 127.51 40.6555 128.39 40.512C128.969 40.4011 129.499 40.1187 129.909 39.7029C130.817 38.7615 131.248 37.5721 131.396 35.9558Z" fill="#F0F1F3"/>
<path d="M136.508 35.1113C136.77 34.9547 137.032 34.7943 137.298 34.6415C137.978 34.25 138.69 33.9759 139.428 34.455C140.167 34.9342 140.317 35.719 140.188 36.5206C139.907 38.2656 139.049 39.7271 137.441 40.525C136.645 40.9221 135.607 40.8494 134.505 41.0172C134.422 41.3248 134.287 41.9288 134.092 42.5086C133.83 43.2897 133.759 43.9217 134.906 44H131.698C132.85 43.78 132.907 42.7901 133.154 41.9493C133.718 40.0155 134.272 38.0798 134.815 36.1422C135.143 34.9808 135.126 34.9584 133.993 34.6266L136.4 34.209C136.362 34.4867 136.336 34.6862 136.309 34.8857C136.269 35.0143 136.227 35.143 136.188 35.2697L136.419 35.4561C136.45 35.335 136.478 35.225 136.508 35.1113ZM138.99 35.9483C138.893 35.7619 138.754 35.128 138.42 35.0162C138.025 34.8764 137.416 35.0945 136.994 35.3256C136.619 35.5574 136.324 35.8954 136.148 36.2951C135.721 37.2496 135.356 38.2339 135.026 39.2257C134.707 40.1802 135.284 40.7916 136.271 40.5045C136.746 40.3495 137.172 40.075 137.505 39.7085C138.399 38.7372 138.845 37.5571 138.99 35.9483Z" fill="#F0F1F3"/>
<path d="M56.5235 40.9109H52.1152C53.3701 40.8755 53.634 39.9788 53.8884 39.0467C54.5376 36.7481 55.2173 34.4569 55.8628 32.1602C55.91 31.941 55.9449 31.7194 55.9672 31.4965C54.3991 31.3194 53.2315 31.7854 52.7113 33.4521L52.5215 33.234C52.7246 32.4883 52.9277 31.7426 53.146 30.9242H60.6375L59.8515 33.5341C59.6616 32.8611 59.673 32.0427 59.2819 31.7165C58.8909 31.3902 58.046 31.4853 57.3683 31.3939C56.6298 34.03 55.9178 36.53 55.2287 39.0374C54.83 40.4206 54.8699 40.4672 56.5235 40.9109Z" fill="#F4F5F6"/>
<path d="M72.7992 39.5556C73.4637 38.5154 74.1756 37.505 74.7641 36.4162C74.9141 36.1422 74.6844 35.6593 74.6046 35.2772C74.5534 35.0274 74.3635 34.7608 74.4148 34.5483C74.4547 34.3991 74.8685 34.1959 75.0052 34.2556C75.1404 34.3142 75.2621 34.3991 75.3629 34.5051C75.4637 34.6112 75.5416 34.7362 75.5919 34.8726C75.6517 35.2078 75.6094 35.5528 75.4704 35.8644C74.6236 37.861 73.2396 39.5016 71.6031 41.1104C71.4418 39.5109 71.2804 37.9114 71.0944 36.049L68.0739 41.1663L67.8062 41.103C67.7682 40.3573 67.7397 39.6004 67.6885 38.8509C67.6277 37.9841 67.5499 37.119 67.4759 36.2522C67.4075 35.4207 67.193 34.7272 66.0007 35.0069L66.0463 34.7533L68.2295 34.1642C68.4308 35.8029 68.6092 37.3334 68.8314 39.0616L71.7626 34.1959L71.998 34.2202C72.1689 35.9713 72.3391 37.7212 72.5087 39.4699L72.7992 39.5556Z" fill="#ECEEF0"/>
<path d="M145.435 40.8718C145.891 39.2723 146.341 37.7249 146.764 36.172C147.083 35.0311 147.058 35.0031 145.944 34.6806L148.412 34.209L147.624 37.0128L148.383 36.2224C148.97 35.6239 149.509 34.964 150.17 34.4588C150.441 34.2518 151.098 34.2202 151.366 34.4047C151.634 34.5893 151.795 35.1821 151.717 35.5344C151.434 36.8394 151.005 38.1034 150.694 39.399C150.608 39.757 150.743 40.1652 150.798 40.8103L149.659 41.0694C149.593 40.6462 149.399 40.1932 149.485 39.7998C149.754 38.5601 150.145 37.3465 150.447 36.1124C150.519 35.8178 150.43 35.486 150.413 35.1709C150.079 35.2958 149.653 35.335 149.426 35.5605C148.137 36.8086 147.222 38.3811 146.783 40.1056C146.608 40.8326 146.293 41.1141 145.435 40.8718Z" fill="#EFF0F2"/>
<path d="M123.238 34.8055L124.827 34.0207C124.214 36.2783 123.688 38.2507 123.145 40.2212L123.409 40.3834L124.478 39.4214L124.668 39.6078C124.233 40.0366 123.84 40.525 123.339 40.8718C123.185 40.9638 123.013 41.0214 122.835 41.0404C122.656 41.0595 122.476 41.0394 122.306 40.9818C122.116 40.8979 122.116 40.4076 122.034 40.0944C122.02 39.9083 122.02 39.7213 122.034 39.5351C121.56 39.9434 121.224 40.2808 120.842 40.553C120.273 40.9631 119.665 41.349 118.944 40.9706C118.222 40.5922 118.099 39.9266 118.171 39.2126C118.361 37.2104 119.323 35.6314 121.06 34.552C122.023 33.9685 122.594 34.0952 123.238 34.8055ZM123.134 35.706C123.022 35.5083 122.885 34.8894 122.545 34.7533C122.205 34.6172 121.531 34.813 121.216 35.0945C120.653 35.5957 120.197 36.2026 119.876 36.8795C119.555 37.5563 119.376 38.2894 119.348 39.0355C119.327 39.4084 119.566 39.9676 119.851 40.1056C120.136 40.2435 120.743 40.0832 121.038 39.8465C122.258 38.8603 122.94 37.5572 123.134 35.7078V35.706ZM122.069 39.6078L122.141 39.5463L122.076 39.4792L122.004 39.5724L122.069 39.6078Z" fill="#EFF1F2"/>
<path d="M81.8436 40.5437C82.0587 40.1012 82.2745 39.6594 82.4909 39.2182L82.8592 39.5743C82.4492 40.2118 81.9802 40.814 81.1829 41.0657C80.4748 41.2912 80.2336 40.9463 80.2336 39.5258C79.8539 39.8763 79.5996 40.1447 79.3091 40.3703C78.6883 40.8569 78.0371 41.3919 77.1847 40.9799C76.3323 40.5679 76.2886 39.7439 76.4082 38.9591C76.693 37.0948 77.6118 35.5829 79.2559 34.5725C80.2337 33.9741 80.8127 34.0934 81.4828 34.8428L82.7852 34.1213L82.9637 34.2966C82.4321 36.2851 81.9012 38.2693 81.3708 40.2491L81.8436 40.5437ZM81.367 35.6873C81.2512 35.4897 81.1032 34.8726 80.7633 34.744C80.4235 34.6154 79.7514 34.8223 79.4344 35.1057C78.874 35.6105 78.4211 36.2194 78.1018 36.8971C77.7824 37.5748 77.603 38.3079 77.5739 39.0541C77.5549 39.4009 77.7637 39.962 78.0124 40.0739C78.2135 40.1335 78.4257 40.1476 78.6331 40.1154C78.8406 40.0831 79.0379 40.0052 79.2104 39.8875C80.471 38.9013 81.1772 37.5721 81.367 35.6873ZM80.2716 39.481L80.2052 39.5463L80.2735 39.6078L80.34 39.5109L80.2716 39.481Z" fill="#EFF1F2"/>
<path d="M65.0571 36.6399C65.0431 37.6402 64.698 38.6087 64.074 39.3994C63.45 40.19 62.5809 40.7599 61.5981 41.0228C59.9122 41.4441 58.5377 40.3554 58.6061 38.6496C58.6675 37.6854 59.022 36.7614 59.6237 35.9971C60.2255 35.2327 61.0468 34.6631 61.9816 34.3618C63.7491 33.8436 65.0818 34.8298 65.0571 36.6399ZM59.6123 39.1735C59.9521 39.6694 60.1818 40.333 60.6602 40.6164C61.3114 41.006 61.9341 40.5232 62.3689 39.9993C63.2654 38.9418 63.7872 37.6266 63.8554 36.2522C63.8953 35.6034 63.8041 34.9733 63.096 34.6918C62.3879 34.4103 61.7936 34.7776 61.3456 35.2921C60.4229 36.3678 59.9141 37.6168 59.6123 39.1809V39.1735Z" fill="#F0F1F3"/>
<path d="M11.1175 38.2618C11.4061 38.8863 11.52 39.6153 11.9509 39.9396C12.3819 40.264 13.1375 40.2733 13.6881 40.1466C14.2823 40.0123 14.8025 39.5556 15.3967 39.3039C14.6753 40.2361 13.7621 40.9072 12.5736 41.0955C11.1384 41.3229 10.0563 40.3498 10.0468 38.9013C10.0335 36.8972 11.8085 34.7048 13.7982 34.2891C14.1101 34.2254 14.4298 34.206 14.7474 34.2313C15.8865 34.3208 16.456 35.2623 15.7308 36.1086C15.1385 36.8059 14.2443 37.3055 13.3995 37.7305C12.7939 38.0232 12.061 38.053 11.1175 38.2618ZM11.427 37.7603C12.8337 37.5553 14.0298 37.2011 14.6942 36.0098C14.8708 35.6929 14.9069 35.0665 14.7075 34.8503C14.5082 34.634 13.8684 34.6415 13.5343 34.7906C12.3211 35.335 11.782 36.4069 11.427 37.7585V37.7603Z" fill="#EEEFF1"/>
<path d="M41.8236 38.273C42.1729 38.9404 42.3248 39.6973 42.7899 40.0236C44.0809 40.924 45.0453 39.7887 46.135 39.1865C45.5047 40.4206 43.667 41.3341 42.4463 41.0825C41.4685 40.8793 40.7927 39.9639 40.7984 38.8677C40.7984 36.9177 42.4614 34.8204 44.4055 34.3376C44.7705 34.2428 45.1488 34.2069 45.5256 34.2313C46.6115 34.3171 47.1849 35.2399 46.5166 36.0508C45.9338 36.7555 45.051 37.2738 44.2118 37.7063C43.6138 38.012 42.8715 38.0381 41.8236 38.273ZM42.1748 37.7809C43.574 37.5348 44.7871 37.2216 45.4478 36.0154C45.6243 35.6948 45.6642 35.0721 45.4668 34.8521C45.2693 34.6321 44.6295 34.6415 44.2935 34.7887C43.0784 35.335 42.5393 36.4032 42.1748 37.7809Z" fill="#EEEFF1"/>
<path d="M154.736 38.1947C154.569 39.44 155.115 40.4001 156.105 40.2883C157.008 40.1876 157.868 39.6861 158.793 39.345C158.033 40.2137 157.139 40.8606 155.994 41.0787C154.525 41.3602 153.386 40.3852 153.376 38.8938C153.365 36.8879 155.14 34.6974 157.13 34.2835C157.442 34.2198 157.761 34.2004 158.079 34.2257C159.218 34.3152 159.788 35.2604 159.059 36.1049C158.466 36.8021 157.57 37.2962 156.727 37.7268C156.152 38.0158 155.444 38.0381 154.736 38.1947ZM154.791 37.7548C156.12 37.5683 157.293 37.229 157.978 36.103C158.182 35.7693 158.069 35.2511 158.102 34.8167C157.663 34.8167 157.153 34.6526 156.797 34.8167C155.628 35.3965 155.072 36.4386 154.791 37.7585V37.7548Z" fill="#EEEFF1"/>
<path d="M96.8149 40.8774C96.9289 40.2584 97.0712 39.4867 97.2155 38.7167H97.4054C97.4984 39.0765 97.4965 39.5072 97.7072 39.7793C98.0034 40.1634 98.4192 40.5884 98.8615 40.6984C99.2146 40.786 99.9171 40.5344 100.042 40.251C100.219 39.8539 100.13 39.2331 99.9284 38.8099C99.6551 38.232 99.169 37.7566 98.7799 37.2272C98.2426 36.4815 98.0205 35.691 98.6489 34.9136C99.2773 34.1363 100.048 34.0878 100.956 34.3879C101.309 34.5054 101.734 34.4066 102.271 34.4066L101.891 36.4572L101.656 36.4833C101.586 36.1832 101.605 35.8141 101.428 35.5978C101.123 35.2035 100.735 34.8791 100.289 34.6471C100.099 34.5576 99.4709 34.8689 99.4576 35.0292C99.428 35.4918 99.5223 35.9539 99.731 36.3696C99.9512 36.8021 100.365 37.1358 100.665 37.5348C101.424 38.5452 101.525 39.44 100.992 40.1876C100.394 41.0265 99.4102 41.2763 98.1989 40.965C97.806 40.8625 97.3712 40.9072 96.8149 40.8774Z" fill="#EFF0F2"/>
<path d="M171.002 34.4513L170.598 36.4796H170.408C170.317 36.1385 170.318 35.7339 170.113 35.4729C169.817 35.1045 169.431 34.8164 168.99 34.6359C168.783 34.5594 168.196 34.8652 168.171 35.0497C168.119 35.4851 168.205 35.9257 168.416 36.3118C168.722 36.8432 169.21 37.2738 169.569 37.7809C170.11 38.5489 170.286 39.3692 169.696 40.2044C169.147 40.9799 168.194 41.2558 167.167 41.034C166.631 40.9468 166.09 40.8889 165.548 40.8606C165.656 40.2641 165.8 39.4811 165.942 38.6981H166.132C166.208 39.0724 166.303 39.4426 166.417 39.8073C166.481 39.9914 166.582 40.1606 166.716 40.3043C166.849 40.448 167.011 40.5631 167.192 40.6423C167.373 40.7216 167.568 40.7634 167.766 40.765C167.964 40.7667 168.16 40.7281 168.342 40.6518C169.024 40.3554 169.196 39.6209 168.699 38.8398C168.319 38.2376 167.839 37.6951 167.431 37.106C166.924 36.379 166.782 35.6016 167.387 34.8689C167.993 34.1363 168.737 34.0673 169.614 34.3488C170.001 34.4849 170.451 34.4234 171.002 34.4513Z" fill="#EFF0F2"/>
<path d="M165.12 34.3898C164.999 35.018 164.858 35.7488 164.716 36.4796H164.526C164.437 36.0995 164.321 35.7258 164.181 35.3611C163.867 34.6713 163.087 34.3917 162.546 34.7701C161.887 35.2287 162.079 35.7787 162.474 36.2951C162.869 36.8115 163.288 37.2458 163.649 37.7529C164.302 38.6701 164.333 39.5351 163.788 40.2473C163.207 41.0097 162.286 41.267 161.244 41.034C160.717 40.9481 160.186 40.8946 159.653 40.8737C159.767 40.2696 159.919 39.4811 160.069 38.6943L160.258 38.713C160.344 39.0653 160.336 39.4885 160.539 39.7551C160.834 40.1447 161.236 40.5791 161.678 40.6965C162.032 40.7916 162.742 40.5549 162.873 40.2734C163.062 39.8819 162.983 39.2518 162.781 38.8323C162.493 38.2283 161.982 37.7268 161.584 37.1694C161.073 36.4517 160.891 35.678 161.475 34.9323C162.06 34.1866 162.859 34.0897 163.772 34.373C164.154 34.4923 164.614 34.3898 165.12 34.3898Z" fill="#EFF0F2"/>
<path d="M25.7168 39.7588C26.5313 38.5788 27.3002 37.5404 27.9646 36.4405C28.1089 36.2037 27.8868 35.7451 27.8203 35.3928C27.7634 35.0907 27.621 34.785 27.6514 34.4961C27.6628 34.3898 28.1488 34.1903 28.2627 34.263C28.5247 34.4327 28.8474 34.7365 28.8607 35.0087C28.8953 35.4707 28.7868 35.9321 28.5494 36.3323C27.3799 38.0102 26.1402 39.6246 24.9271 41.2614L24.5322 41.1179C24.4961 40.6518 24.4714 40.1857 24.4221 39.7215C24.2968 38.521 24.1791 37.3185 24.0234 36.1198C23.9266 35.3853 23.7462 34.675 22.5558 34.9696L22.6812 34.6881L24.8796 34.1661C25.1473 35.9613 25.4169 37.7156 25.7168 39.7588Z" fill="#EDEEF0"/>
<path d="M39.084 39.2107C38.393 40.3815 37.4228 41.1402 35.999 41.1123C34.8903 41.0918 34.1536 40.4728 33.9353 39.4233C33.4588 37.1265 35.9401 34.1791 38.3189 34.2127C39.2985 34.2276 39.9288 34.7198 39.8149 35.4767C39.7656 35.7973 39.496 36.1105 39.2568 36.3659C39.1922 36.4349 38.7081 36.2839 38.7081 36.2335C38.6844 35.924 38.7385 35.6135 38.8657 35.3294C39.1618 34.8335 38.9663 34.5427 38.486 34.6135C37.8937 34.703 37.2292 34.8745 36.7774 35.2306C35.7275 36.0639 35.2282 37.2384 35.1655 38.5657C35.0934 40.1541 36.2761 40.9072 37.719 40.169C38.2183 39.921 38.6265 39.5351 39.084 39.2107Z" fill="#ECEEF0"/>
<path d="M32.5514 34.181C31.9818 36.2932 31.4617 38.2395 30.9377 40.1876L31.2111 40.3386L32.3634 39.3151L32.5875 39.5593C31.9818 40.0627 31.4332 40.6779 30.7535 41.0396C30.1441 41.3714 29.6505 40.8345 29.8422 40.059C30.1745 38.7093 30.5789 37.3763 30.9434 36.0341C31.2357 34.964 31.1655 34.8652 30.0815 34.634L32.5514 34.181Z" fill="#EFF1F2"/>
<path d="M141.923 34.6135L144.374 34.1885C143.819 36.2578 143.292 38.2227 142.766 40.1876L143.032 40.3405L144.195 39.317C144.087 39.7085 143.887 40.0696 143.611 40.3711C143.334 40.6726 142.99 40.906 142.604 41.0526C141.932 41.3118 141.477 40.8438 141.667 40.0702C142.008 38.6906 142.426 37.3297 142.806 35.9558C143.062 34.9621 142.973 34.8559 141.923 34.6135Z" fill="#EFF1F2"/>
<path d="M17.8704 40.8662H16.7313C17.1983 39.2872 17.6559 37.7753 18.0906 36.2597C18.4495 35.0087 18.4362 35.005 17.018 34.6713L19.7081 34.2164L17.8704 40.8662Z" fill="#F0F2F3"/>
<path d="M84.1236 40.8569C84.6077 39.2033 85.0728 37.6616 85.5095 36.1105C85.8303 34.964 85.8113 34.9603 84.6324 34.6508C85.0026 34.5762 85.3728 34.4905 85.7449 34.4252C86.117 34.36 86.5442 34.3078 87.0473 34.2388C86.9808 34.5278 86.939 34.7533 86.8783 34.9733C86.3562 36.9252 85.8303 38.8752 85.295 40.8606L84.1236 40.8569Z" fill="#F0F2F3"/>
<path d="M88.1768 35.4953L87.2181 36.3547C87.1517 36.2951 87.0871 36.2335 87.0283 36.1683C87.539 35.6351 88.0174 35.0665 88.5717 34.58C88.8983 34.291 89.4602 33.8697 89.7279 34.5017C89.8836 34.8745 89.5381 35.4431 89.4203 35.9241L88.1768 35.4953Z" fill="#EEEFF1"/>
<path d="M20.7808 35.4878L19.805 36.3528L19.6151 36.1664C20.1277 35.6314 20.6099 35.0609 21.1662 34.5725C21.4965 34.2817 22.0604 33.8715 22.3223 34.5091C22.4723 34.882 22.1325 35.4412 22.0034 35.9241L20.7808 35.4878Z" fill="#EEEFF1"/>
<path d="M33.5006 32.0241C33.0146 32.3522 32.6728 32.7362 32.4811 32.6766C32.3166 32.6066 32.1711 32.4999 32.056 32.3649C31.941 32.23 31.8597 32.0705 31.8185 31.8992C31.7919 31.7127 32.2628 31.3045 32.5267 31.2933C32.7905 31.2821 33.0392 31.6587 33.5006 32.0241Z" fill="#F3F4F5"/>
<path d="M144.275 30.8925C144.626 31.4051 144.972 31.6866 144.953 31.9439C144.934 32.2012 144.573 32.4622 144.349 32.7194C144.095 32.4696 143.696 32.2515 143.632 31.9607C143.578 31.7332 143.939 31.42 144.275 30.8925Z" fill="#F3F4F5"/>
<path d="M95.9113 39.5389C95.8463 39.5921 95.7749 39.6372 95.6987 39.6731C95.6721 39.6824 95.617 39.6172 95.5771 39.5855C95.6235 39.5267 95.6793 39.4757 95.7423 39.4345C95.7708 39.4214 95.8353 39.4885 95.9113 39.5389Z" fill="#F0F1F3"/>
<path d="M128.914 35.1113C128.884 35.225 128.856 35.3406 128.825 35.4543L128.594 35.2679C128.633 35.1411 128.675 35.0125 128.715 34.8838L128.914 35.1113Z" fill="#0C2343"/>
<path d="M136.508 35.1113C136.478 35.225 136.45 35.3387 136.419 35.4543L136.188 35.2679C136.227 35.1411 136.269 35.0125 136.309 34.8838L136.508 35.1113Z" fill="#0C2343"/>
<path d="M122.069 39.6078L122.004 39.5724C122.027 39.5407 122.051 39.5109 122.076 39.4792L122.141 39.5463L122.069 39.6078Z" fill="#0C2343"/>
<path d="M80.2716 39.481L80.3399 39.5109L80.2735 39.6078L80.2051 39.5463L80.2716 39.481Z" fill="#0C2343"/>
</g>
<defs>
<clipPath id="clip0_94_340">
<rect width="171" height="44" fill="white"/>
</clipPath>
</defs>
</svg>
