<svg width="25" height="25" viewBox="0 0 25 25" fill="none" xmlns="http://www.w3.org/2000/svg">
<path d="M21.2648 4.54568L21.2648 4.5457C22.3665 5.65008 23.2307 6.93576 23.8335 8.36817C24.455 9.85125 24.7697 11.4276 24.7617 13.0521C24.7537 14.6688 24.4336 16.2345 23.8042 17.7068L23.8041 17.7069C23.1987 19.1286 22.3318 20.4035 21.2302 21.4945L21.2301 21.4946C20.1375 22.5804 18.8438 23.4429 17.4212 24.0339C15.9622 24.6394 14.4125 24.9488 12.8146 24.9488H12.7586C10.9061 24.9397 9.08099 24.5015 7.42641 23.6684L7.4158 23.6631H7.40392H3.32987C3.01635 23.6631 2.71567 23.5385 2.49398 23.3168C2.27229 23.0951 2.14774 22.7944 2.14774 22.4809V18.4095V18.3976L2.1424 18.387C1.30934 16.7324 0.871092 14.9072 0.862041 13.0548L0.812042 13.055L0.862041 13.0548C0.854038 11.4382 1.16346 9.86713 1.77696 8.38938L1.77696 8.38937C2.36908 6.9624 3.22524 5.68211 4.31628 4.58039L4.3163 4.58037C5.39993 3.48483 6.68636 2.61059 8.10388 2.00638L8.10393 2.00636C9.57619 1.37691 11.1418 1.0568 12.7584 1.04878H12.8119C14.4178 1.04878 15.9755 1.36087 17.4425 1.97702L17.4425 1.97705C18.8723 2.57512 20.1709 3.4478 21.2648 4.54568ZM19.8675 20.1165L19.8675 20.1164C21.7627 18.2374 22.8153 15.7256 22.8314 13.0446V13.0445C22.8368 11.6825 22.5757 10.3634 22.0534 9.1196C21.55 7.91893 20.8231 6.8394 19.8998 5.9161C18.9739 4.99012 17.897 4.26591 16.6964 3.76249C15.4661 3.24561 14.1604 2.98449 12.8146 2.98449L12.769 2.98449L12.7688 2.98449C10.0851 2.99526 7.57335 4.04517 5.69433 5.94304C3.81263 7.84092 2.78696 10.3608 2.79773 13.0445L2.79773 13.0446C2.80581 14.6678 3.20956 16.2802 3.96877 17.7044L3.96882 17.7045L4.08343 17.9185V21.6774V21.7274H4.13343H7.89226L8.1062 21.842L8.10629 21.842C9.53048 22.6012 11.1429 23.005 12.7661 23.0131H12.7664H12.8119C15.4768 23.0131 17.9805 21.9847 19.8675 20.1165ZM11.9381 13.8726C11.7064 13.6408 11.5762 13.3265 11.5762 12.9988C11.5762 12.671 11.7064 12.3567 11.9381 12.125C12.1699 11.8933 12.4842 11.7631 12.8119 11.7631C13.1396 11.7631 13.4539 11.8933 13.6857 12.125C13.9174 12.3567 14.0476 12.671 14.0476 12.9988C14.0476 13.3265 13.9174 13.6408 13.6857 13.8726C13.4539 14.1043 13.1396 14.2345 12.8119 14.2345C12.4842 14.2345 12.1699 14.1043 11.9381 13.8726ZM17.2952 13.8726C17.0635 13.6408 16.9333 13.3265 16.9333 12.9988C16.9333 12.671 17.0635 12.3567 17.2952 12.125C17.5269 11.8933 17.8412 11.7631 18.169 11.7631C18.4967 11.7631 18.811 11.8933 19.0427 12.125C19.2745 12.3567 19.4047 12.671 19.4047 12.9988C19.4047 13.3265 19.2745 13.6408 19.0427 13.8726C18.811 14.1043 18.4967 14.2345 18.169 14.2345C17.8412 14.2345 17.5269 14.1043 17.2952 13.8726ZM6.58105 13.8726C6.34931 13.6408 6.21912 13.3265 6.21912 12.9988C6.21912 12.671 6.34931 12.3567 6.58105 12.125C6.81278 11.8933 7.12709 11.7631 7.45482 11.7631C7.78254 11.7631 8.09685 11.8933 8.32859 12.125C8.56032 12.3567 8.69051 12.671 8.69051 12.9988C8.69051 13.3265 8.56033 13.6408 8.32859 13.8726C8.09685 14.1043 7.78254 14.2345 7.45482 14.2345C7.12709 14.2345 6.81278 14.1043 6.58105 13.8726Z" fill="white" stroke="white" stroke-width="0.1"/>
</svg>
