<svg width="16" height="18" viewBox="0 0 16 18" fill="none" xmlns="http://www.w3.org/2000/svg">
<path d="M14.6425 8.68102C13.9851 7.91326 13.6863 7.24702 13.6863 6.11669V5.73326C13.6863 4.25938 13.3482 3.31124 12.6112 2.36219C11.4752 0.888316 9.56282 0 7.69069 0H7.61018C5.77741 0 3.92495 0.847526 2.76929 2.26067C1.99199 3.22966 1.61453 4.2195 1.61453 5.73326V6.11669C1.61453 7.24702 1.33545 7.91326 0.657438 8.68102C0.160111 9.24664 0 9.9727 0 10.7604C0 11.5472 0.259397 12.2941 0.777298 12.9005C1.45441 13.6275 2.41061 14.0916 3.38737 14.1723C4.80154 14.3336 6.2157 14.3943 7.65044 14.3943C9.08428 14.3943 10.4993 14.2928 11.9135 14.1723C12.8894 14.0916 13.8456 13.6275 14.5236 12.9005C15.0415 12.2941 15.3 11.5472 15.3 10.7604C15.3 9.9727 15.1408 9.24664 14.6425 8.68102Z" fill="#434343"/>
<path d="M5.81771 15.5052C5.43308 15.594 5.01715 15.8016 5.01715 16.2548C5.03951 16.6863 5.29265 17.0688 5.64328 17.3108C6.09589 17.6652 6.6281 17.8891 7.18536 17.9698C7.48232 18.0106 7.78465 18.0097 8.09235 17.9698C8.64872 17.8891 9.18093 17.6652 9.63443 17.3117C9.98417 17.0688 10.2373 16.6863 10.2597 16.2548C10.2597 15.8016 9.84373 15.594 9.45911 15.5052C9.00919 15.41 6.26763 15.41 5.81771 15.5052Z" fill="#434343"/>
</svg>
