<svg width="24" height="24" viewBox="0 0 24 24" fill="none" xmlns="http://www.w3.org/2000/svg">
<path d="M18.6667 18.7H19.3667V18V13.0199C19.7622 13.1067 20.1656 13.151 20.5712 13.1515L20.579 13.1515L20.5869 13.1513C20.6024 13.151 20.6178 13.1506 20.6333 13.1502V21.9C20.6333 22.747 20.0312 23.3 19.4667 23.3H4.53067C3.96807 23.3 3.36667 22.7492 3.36667 21.9V13.1495C3.38702 13.1498 3.40747 13.15 3.428 13.15C3.84285 13.15 4.24603 13.1056 4.63333 13.0228V18V18.7H5.33333H18.6667ZM2.90156 0.7H7.08534L6.13732 7.77863C5.98216 8.84893 4.89252 9.8 3.428 9.8C1.82966 9.8 0.7 8.68492 0.7 7.5C0.7 7.31177 0.726091 7.13345 0.775787 6.96047L2.90156 0.7ZM14.728 7.5C14.728 8.68476 13.5972 9.8 12 9.8C10.4038 9.8 9.2734 8.68614 9.272 7.5022C9.27233 7.45541 9.27359 7.40863 9.27576 7.36191L9.89526 0.7H14.1046L14.7228 7.3671C14.7235 7.38203 14.7242 7.39516 14.7248 7.40697C14.7268 7.44651 14.728 7.47133 14.728 7.5ZM16.9147 0.7H21.0973L23.225 6.9588C23.2741 7.13338 23.3 7.31231 23.3 7.5C23.3 8.68476 22.1692 9.8 20.572 9.8C19.0994 9.8 18.0109 8.84322 17.8616 7.76828C17.8615 7.76789 17.8615 7.76751 17.8614 7.76712L16.9147 0.7Z" stroke="white" stroke-width="1.4"/>
</svg>
