<svg width="24" height="24" viewBox="0 0 24 24" fill="none" xmlns="http://www.w3.org/2000/svg">
<path d="M6.83067 7.875L7.43779 3.34169C7.67472 1.57261 6.29868 0 4.51381 0C3.25006 0 2.12668 0.804924 1.72036 2.00156L0.108 6.75C0.0373333 6.99 0 7.239 0 7.5C0 9.156 1.53333 10.5 3.428 10.5C5.17467 10.5 6.61867 9.354 6.83067 7.875ZM12 10.5C13.8933 10.5 15.428 9.156 15.428 7.5C15.428 7.4385 15.424 7.377 15.4213 7.3185L14.9959 2.7313C14.8524 1.18368 13.5539 0 11.9996 0C10.4457 0 9.1473 1.18325 9.00342 2.73053L8.57733 7.3125C8.57418 7.37494 8.5724 7.43746 8.572 7.5C8.572 9.156 10.1067 10.5 12 10.5ZM20.572 12.4515C19.6404 12.4504 18.6667 13.0931 18.6667 14.0248V15.6233C18.6667 16.9359 17.6026 18 16.29 18H7.7164C6.40027 18 5.33333 16.9331 5.33333 15.6169V14.0314C5.33333 13.098 4.36142 12.45 3.428 12.45C3.02576 12.45 2.66667 12.7399 2.66667 13.1422V21.9C2.66667 23.055 3.50533 24 4.53067 24H19.4667C20.4933 24 21.3333 23.0535 21.3333 21.9V13.1436C21.3333 12.7437 20.9718 12.443 20.572 12.4515ZM23.8933 6.75L22.2787 2.00033C21.8721 0.804344 20.7491 0 19.4859 0C17.7012 0 16.3253 1.57249 16.5623 3.34139L17.168 7.863C17.3733 9.348 18.8173 10.5 20.572 10.5C22.4653 10.5 24 9.156 24 7.5C24 7.239 23.9627 6.99 23.8933 6.75Z" fill="white"/>
</svg>
