<svg width="24" height="25" viewBox="0 0 24 25" fill="none" xmlns="http://www.w3.org/2000/svg">
<path d="M16.3 7.5C16.3 9.87482 14.3748 11.8 12 11.8C9.62518 11.8 7.7 9.87482 7.7 7.5C7.7 5.12518 9.62518 3.2 12 3.2C14.3748 3.2 16.3 5.12518 16.3 7.5Z" stroke="white" stroke-width="1.4"/>
<mask id="path-2-inside-1_328_2057" fill="white">
<path d="M20.5899 22.5C20.5899 18.63 16.7399 15.5 11.9999 15.5C7.25991 15.5 3.40991 18.63 3.40991 22.5"/>
</mask>
<path d="M21.9899 22.5C21.9899 17.6017 17.2306 14.1 11.9999 14.1V16.9C16.2492 16.9 19.1899 19.6583 19.1899 22.5H21.9899ZM11.9999 14.1C6.76921 14.1 2.00991 17.6017 2.00991 22.5H4.80991C4.80991 19.6583 7.75061 16.9 11.9999 16.9V14.1Z" fill="white" mask="url(#path-2-inside-1_328_2057)"/>
</svg>
